<?xml version="1.0" standalone="no"?>
<!DOCTYPE svg PUBLIC "-//W3C//DTD SVG 20010904//EN"
 "http://www.w3.org/TR/2001/REC-SVG-20010904/DTD/svg10.dtd">
<svg version="1.0" xmlns="http://www.w3.org/2000/svg"
 width="512.000000pt" height="512.000000pt" viewBox="0 0 512.000000 512.000000"
 preserveAspectRatio="xMidYMid meet">

<g transform="translate(0.000000,512.000000) scale(0.100000,-0.100000)"
fill="#000000" stroke="none">
<path d="M1800 4289 c-88 -35 -131 -107 -138 -226 l-4 -83 1238 -2 1239 -3 50
-27 c64 -34 118 -90 147 -153 l23 -50 3 -712 3 -713 212 0 c209 0 214 1 265
26 60 30 108 94 117 158 3 22 5 401 3 841 l-3 800 -25 45 c-14 24 -45 58 -68
75 l-44 30 -1496 2 c-970 1 -1506 -2 -1522 -8z"/>
<path d="M1050 3819 c-88 -35 -131 -107 -138 -226 l-4 -83 1238 -2 1239 -3 50
-27 c64 -34 118 -90 147 -153 l23 -50 3 -713 3 -713 222 3 c241 3 252 6 311
64 65 66 61 4 61 924 l0 835 -25 45 c-14 24 -45 58 -68 75 l-44 30 -1496 2
c-970 1 -1506 -2 -1522 -8z"/>
<path d="M295 3341 c-49 -22 -93 -65 -114 -111 -14 -31 -16 -124 -19 -830 -2
-562 1 -810 9 -849 9 -43 20 -63 58 -101 63 -63 97 -70 330 -70 l191 0 0 -259
0 -260 26 -20 c53 -42 56 -39 359 257 l285 277 937 5 c936 5 938 5 978 27 46
24 75 54 101 103 18 33 19 73 19 845 0 446 -4 827 -8 848 -10 48 -69 114 -122
138 -38 18 -109 19 -1515 19 -1410 0 -1477 -1 -1515 -19z m2625 -528 c74 -20
147 -59 161 -84 10 -19 5 -31 -38 -93 -27 -39 -58 -73 -67 -74 -10 -2 -45 8
-78 23 -79 35 -161 43 -207 18 -88 -46 -61 -82 89 -118 202 -49 282 -93 324
-177 49 -99 27 -238 -50 -310 -57 -53 -138 -81 -249 -86 -127 -6 -231 15 -334
66 -98 48 -101 63 -31 149 28 35 59 67 68 72 13 7 38 1 95 -25 61 -28 93 -36
159 -40 97 -6 131 6 136 48 5 39 -37 61 -168 92 -231 54 -329 134 -330 270 0
71 18 121 62 171 94 107 281 147 458 98z m-1926 -9 c8 -3 26 -36 40 -72 38
-102 266 -755 266 -763 0 -4 -7 -15 -16 -23 -21 -22 -170 -23 -200 -1 -12 7
-31 41 -43 75 l-22 60 -128 0 -127 0 -18 -56 c-27 -84 -41 -94 -137 -94 -91 0
-119 10 -119 44 0 32 269 797 288 819 12 14 32 17 108 17 51 0 99 -3 108 -6z
m939 -23 c116 -46 227 -180 257 -309 17 -72 8 -193 -19 -262 -42 -110 -141
-208 -251 -252 -48 -19 -80 -22 -245 -26 -158 -3 -193 -1 -210 11 -19 15 -20
27 -20 425 0 340 2 412 14 426 13 16 35 17 215 14 182 -3 207 -6 259 -27z"/>
<path d="M890 2500 c-1 -3 -16 -52 -34 -110 l-33 -105 39 -3 c21 -2 53 -2 72
0 l33 3 -38 110 c-20 61 -38 108 -39 105z"/>
<path d="M1675 2373 l0 -208 52 -3 c104 -6 186 39 224 123 41 89 8 209 -72
262 -36 24 -55 29 -123 31 l-81 4 0 -209z"/>
</g>
</svg>
