<?xml version="1.0" standalone="no"?>
<!DOCTYPE svg PUBLIC "-//W3C//DTD SVG 20010904//EN"
 "http://www.w3.org/TR/2001/REC-SVG-20010904/DTD/svg10.dtd">
<svg version="1.0" xmlns="http://www.w3.org/2000/svg"
 width="512.000000pt" height="512.000000pt" viewBox="0 0 512.000000 512.000000"
 preserveAspectRatio="xMidYMid meet">

<g transform="translate(0.000000,512.000000) scale(0.100000,-0.100000)"
fill="#000000" stroke="none">
<path d="M1205 5111 c-90 -22 -172 -90 -215 -176 l-25 -50 -3 -842 -3 -843
321 0 320 0 0 640 0 640 1440 0 1440 0 0 -1920 0 -1920 -1440 0 -1440 0 0 640
0 640 -320 0 -320 0 2 -842 3 -843 25 -50 c31 -64 91 -124 155 -155 l50 -25
1845 0 1845 0 50 25 c64 31 124 91 155 155 l25 50 0 2325 0 2325 -25 50 c-31
64 -91 124 -155 155 l-50 25 -1825 2 c-1004 0 -1838 -2 -1855 -6z"/>
<path d="M2335 3826 c-37 -16 -70 -52 -84 -89 -7 -18 -11 -173 -11 -443 l0
-414 -1069 -2 c-1063 -3 -1070 -3 -1097 -24 -68 -51 -69 -53 -69 -294 0 -241
1 -243 69 -294 27 -21 34 -21 1097 -24 l1069 -2 0 -415 c0 -455 0 -458 59
-508 37 -30 85 -42 138 -32 34 5 107 76 635 603 527 528 598 601 603 635 17
93 43 62 -593 701 -337 338 -601 594 -619 602 -40 17 -89 17 -128 0z"/>
</g>
</svg>
