<?xml version="1.0" standalone="no"?>
<!DOCTYPE svg PUBLIC "-//W3C//DTD SVG 20010904//EN"
 "http://www.w3.org/TR/2001/REC-SVG-20010904/DTD/svg10.dtd">
<svg version="1.0" xmlns="http://www.w3.org/2000/svg"
 width="4096.000000pt" height="4096.000000pt" viewBox="0 0 4096.000000 4096.000000"
 preserveAspectRatio="xMidYMid meet">

<g transform="translate(0.000000,4096.000000) scale(0.100000,-0.100000)"
fill="#000000" stroke="none">
<path d="M19883 40950 c-2037 -64 -3996 -410 -5887 -1041 -2891 -965 -5543
-2574 -7726 -4687 -1078 -1044 -1969 -2104 -2786 -3317 -2581 -3831 -3779
-8402 -3419 -13040 343 -4409 2104 -8570 5040 -11910 479 -545 1136 -1210
1675 -1695 2675 -2407 5922 -4065 9420 -4809 1675 -356 3423 -503 5145 -430
4145 174 8098 1583 11410 4068 884 663 1667 1355 2467 2181 2111 2180 3728
4846 4688 7730 993 2981 1285 6161 854 9300 -497 3630 -1983 7085 -4279 9955
-1165 1455 -2539 2763 -4035 3842 -3127 2254 -6815 3577 -10640 3818 -591 37
-1395 52 -1927 35z m2874 -15203 c5472 -2736 10080 -5038 10241 -5117 160 -79
292 -146 292 -150 0 -4 -132 -71 -292 -150 -161 -79 -4761 -2377 -10223 -5108
-5461 -2730 -9940 -4968 -9952 -4973 l-23 -9 0 10240 c0 5632 2 10240 5 10240
3 0 4481 -2238 9952 -4973z"/>
</g>
</svg>
