<?xml version="1.0" standalone="no"?>
<!DOCTYPE svg PUBLIC "-//W3C//DTD SVG 20010904//EN"
 "http://www.w3.org/TR/2001/REC-SVG-20010904/DTD/svg10.dtd">
<svg version="1.0" xmlns="http://www.w3.org/2000/svg"
 width="512.000000pt" height="398.000000pt" viewBox="0 0 512.000000 398.000000"
 preserveAspectRatio="xMidYMid meet">

<g transform="translate(0.000000,398.000000) scale(0.100000,-0.100000)"
fill="#000000" stroke="none">
<path d="M1490 3959 c-14 -6 -36 -20 -48 -32 -46 -43 -52 -67 -52 -220 l0
-145 -85 -26 c-48 -15 -120 -43 -162 -62 l-76 -34 -117 114 c-125 123 -149
136 -227 121 -32 -5 -64 -32 -195 -163 -127 -127 -158 -165 -167 -197 -19 -73
-2 -108 115 -226 l105 -105 -39 -70 c-22 -38 -55 -108 -73 -156 l-34 -87 -153
-1 c-175 0 -204 -8 -248 -66 l-29 -37 -3 -214 c-3 -202 -2 -217 18 -258 37
-76 70 -89 243 -95 l149 -5 27 -86 c15 -47 43 -118 61 -157 l33 -73 -115 -117
c-179 -180 -177 -204 31 -415 142 -145 187 -177 245 -177 60 0 88 18 193 122
l101 101 91 -47 c50 -26 119 -57 153 -70 l63 -24 5 -165 c6 -183 10 -197 80
-245 32 -21 41 -22 255 -22 214 0 223 1 255 23 70 47 75 62 78 232 l3 153 87
27 c48 15 121 42 162 61 l74 35 106 -110 c58 -60 118 -115 133 -120 40 -15
103 -14 135 3 41 22 309 297 322 329 13 36 13 88 0 123 -6 15 -56 74 -111 130
l-100 102 44 83 c25 46 57 116 72 156 l28 72 166 3 c155 3 168 5 199 26 63 46
67 63 67 302 0 197 -2 218 -20 249 -41 69 -59 75 -233 81 l-157 5 -31 95 c-17
52 -45 125 -61 161 l-31 67 105 103 c57 57 111 116 119 131 8 15 14 49 14 76
0 63 -19 89 -186 254 -107 104 -137 128 -174 138 -75 20 -110 3 -230 -115
l-105 -103 -65 37 c-36 19 -105 52 -155 72 l-90 36 -5 169 c-6 189 -10 203
-81 243 -34 19 -52 21 -245 20 -115 0 -220 -5 -234 -10z m334 -1014 c38 -8
107 -33 154 -56 165 -80 305 -256 348 -435 21 -91 21 -241 0 -324 -63 -239
-255 -430 -489 -485 -81 -19 -247 -19 -322 0 -284 72 -486 320 -502 615 -24
440 376 777 811 685z"/>
<path d="M4030 1850 c-105 -21 -114 -25 -130 -55 -13 -23 -10 -108 6 -170 5
-20 0 -27 -38 -45 -23 -12 -57 -33 -75 -46 -17 -13 -37 -24 -44 -24 -6 0 -41
21 -77 47 -109 77 -133 69 -236 -81 -49 -72 -57 -89 -54 -122 3 -35 10 -44 75
-92 l71 -54 -13 -31 c-7 -18 -18 -58 -25 -89 -12 -63 -9 -61 -114 -79 -50 -8
-76 -19 -94 -36 -23 -23 -24 -30 -19 -86 12 -123 29 -187 55 -219 25 -29 29
-30 81 -25 31 3 72 9 92 13 36 6 37 5 66 -47 16 -30 38 -67 48 -84 l17 -30
-51 -74 c-28 -41 -51 -84 -51 -96 0 -34 25 -61 122 -130 132 -94 158 -90 245
37 l31 46 62 -19 c34 -10 70 -19 80 -19 32 0 45 -24 59 -105 14 -88 41 -125
88 -125 15 0 75 9 133 19 90 17 108 23 128 47 26 29 26 31 6 164 l-6 46 42 19
c24 11 60 32 81 47 l37 27 73 -52 c118 -83 136 -76 249 91 73 109 67 139 -41
213 -46 31 -59 45 -53 57 3 10 15 50 25 91 10 40 19 74 21 76 2 1 37 7 78 14
139 22 151 43 122 208 -18 103 -25 121 -48 142 -25 20 -35 23 -83 18 -31 -3
-72 -9 -92 -13 -34 -6 -36 -4 -54 37 -11 23 -32 59 -47 80 l-27 38 49 72 c38
55 50 82 50 109 0 43 -10 53 -126 134 -122 84 -146 79 -234 -46 l-32 -46 -37
13 c-21 7 -62 18 -93 24 l-56 12 -6 52 c-22 170 -48 186 -236 147z m291 -607
c114 -51 199 -179 199 -303 0 -93 -59 -207 -137 -264 -169 -123 -408 -59 -496
132 -32 69 -31 209 2 272 27 53 94 125 136 147 89 47 210 54 296 16z"/>
</g>
</svg>
